<svg width="191" height="45" viewBox="0 0 191 45" fill="none" xmlns="http://www.w3.org/2000/svg">
<path d="M188.001 5.05L188.051 6V39L188.001 40C187.701 42 186.384 43 184.051 43H6.05078C3.71745 43 2.41745 42 2.15079 40L2.05078 39V6L2.15079 5.05C2.41745 3.01667 3.71745 2 6.05078 2H184.051C186.384 2 187.701 3.01667 188.001 5.05ZM184.051 40C184.717 40 185.051 39.6667 185.051 39V22.5H5.05078V39C5.05078 39.6667 5.38411 40 6.05078 40H184.051Z" fill="#88E060"/>
<path d="M184.051 40H6.05078C5.38411 40 5.05078 39.6667 5.05078 39V22.5H185.051V39C185.051 39.6667 184.717 40 184.051 40Z" fill="#73CD4B"/>
<path d="M188.001 5.05C187.701 3.01667 186.384 2 184.051 2H6.05078C3.71745 2 2.41745 3.01667 2.15079 5.05L2.05078 6V39L2.15079 40C2.41745 42 3.71745 43 6.05078 43H184.051C186.384 43 187.701 42 188.001 40L188.051 39V6L188.001 5.05ZM190.051 39.25C189.951 43.0833 187.951 45 184.051 45H6.05078H5.80078H5.65079H5.45078H5.35077H5.25079H5.15079C2.01745 44.7333 0.334102 43.0167 0.100769 39.85L0.0507812 39.25V6C0.0507812 2 2.05078 0 6.05078 0H184.051C188.051 0 190.051 2 190.051 6V39V39.25Z" fill="#5FB13A"/>
</svg>
