<svg width="191" height="49" viewBox="0 0 191 49" fill="none" xmlns="http://www.w3.org/2000/svg">
<path d="M190.051 39.25V43C190.051 47 188.051 49 184.051 49H6.05078C2.05078 49 0.0507812 47 0.0507812 43V39.25C0.150781 43.0833 2.15078 45 6.05078 45H184.051C187.951 45 189.951 43.0833 190.051 39.25Z" fill="#47832C"/>
<path d="M188.001 5.05L188.051 6V39C188.051 41.6667 186.717 43 184.051 43H6.05078C3.38411 43 2.05078 41.6667 2.05078 39V6L2.15079 5.05C2.41745 3.01667 3.71745 2 6.05078 2H184.051C186.384 2 187.701 3.01667 188.001 5.05ZM184.051 40C184.717 40 185.051 39.6667 185.051 39V22.5H5.05078V39C5.05078 39.6667 5.38411 40 6.05078 40H184.051Z" fill="#88E060"/>
<path d="M0.0507812 39.25V6C0.0507812 2 2.05078 0 6.05078 0H184.051C188.051 0 190.051 2 190.051 6V39.25C189.951 43.0833 187.951 45 184.051 45H6.05078C2.15078 45 0.150781 43.0833 0.0507812 39.25ZM188.001 5.05C187.701 3.01667 186.384 2 184.051 2H6.05078C3.71745 2 2.41745 3.01667 2.15079 5.05L2.05078 6V39C2.05078 41.6667 3.38411 43 6.05078 43H184.051C186.717 43 188.051 41.6667 188.051 39V6L188.001 5.05Z" fill="#5FB13A"/>
<path d="M184.051 40H6.05078C5.38411 40 5.05078 39.6667 5.05078 39V22.5H185.051V39C185.051 39.6667 184.717 40 184.051 40Z" fill="#73CD4B"/>
</svg>
